<svg width="480" height="174" viewBox="0 0 480 174" fill="none" xmlns="http://www.w3.org/2000/svg">
<path d="M0 15C0 6.71573 6.71573 0 15 0H464.361C472.646 0 479.361 6.71573 479.361 15V158.133C479.361 166.417 472.646 173.133 464.361 173.133H15C6.71574 173.133 0 166.417 0 158.133V15Z" fill="#007BFF"/>
<path d="M150.033 106.993C138.047 106.993 131.094 98.4557 131.094 85.6498C131.094 72.7871 138.5 64.6056 150.372 64.6056C159.474 64.6056 165.975 69.7955 167.615 78.9339H160.708C159.464 73.406 155.451 70.4714 150.137 70.4714C143.636 70.4714 138.489 75.7787 138.489 85.6498C138.489 95.5815 143.522 101.109 150.08 101.109C155.618 101.109 159.578 98.2316 160.822 92.6468H167.729C166.032 101.803 159.474 106.993 150.033 106.993Z" fill="white"/>
<path d="M187.748 75.2273C195.097 75.2273 198.084 79.9654 198.084 87.1865V106.26H191.358V88.8299C191.358 84.7072 190.745 80.7018 185.599 80.7018C180.452 80.7018 178.528 84.6503 178.528 90.1212V106.26H171.806V65.3525H178.528V80.1362C180.285 76.9739 183.517 75.2273 187.748 75.2273Z" fill="white"/>
<path d="M231.047 75.9032V106.26H224.322V102.255C222.512 105.243 219.332 106.993 215.277 106.993C207.642 106.993 202.047 100.843 202.047 91.0817C202.047 81.3207 207.642 75.2273 215.277 75.2273C219.347 75.2273 222.512 76.9739 224.322 79.9655V75.9032H231.047ZM209.057 91.0817C209.057 97.513 211.827 101.518 216.745 101.518C221.154 101.518 224.586 98.0786 224.586 91.0817C224.586 84.0847 221.154 80.7018 216.745 80.7018C211.827 80.7018 209.057 84.6503 209.057 91.0817Z" fill="white"/>
<path d="M264.852 75.2878C272.201 75.2878 275.188 80.0259 275.188 87.247V106.314H268.47V88.8833C268.47 84.7641 267.85 80.7587 262.703 80.7587C257.557 80.7587 255.636 84.7072 255.636 90.1781V106.314H248.91V75.9636H255.636V80.1967C257.389 77.0379 260.611 75.2878 264.852 75.2878Z" fill="white"/>
<path d="M291.697 80.4208C288.756 80.4208 286.044 81.7192 286.044 83.7503C286.044 85.7815 287.513 86.8522 290.114 87.3609L294.413 88.2075C300.571 89.392 305.265 91.3093 305.265 97.2356C305.265 103.557 299.274 107.053 292.374 107.053C284.914 107.053 279.939 102.82 279.205 97.0648H285.763C286.383 100.17 288.646 101.977 292.602 101.977C296.106 101.977 298.707 100.508 298.707 98.0253C298.707 95.5424 296.448 94.4147 293.45 93.8492L288.871 92.9492C283.728 91.9318 279.711 89.6197 279.711 84.0882C279.711 78.7276 285.478 75.2878 292.092 75.2878C298.03 75.2878 303.455 78.1655 304.698 84.259H298.369C297.634 81.4951 295.09 80.4208 291.697 80.4208Z" fill="white"/>
<path d="M318.409 67.9529V75.9637H324.515V80.8156H318.409V97.3494C318.409 100.451 319.144 101.184 322.027 101.184H324.458V106.314H319.468C312.967 106.314 311.666 104.563 311.666 98.3561V80.8156H307.158V75.9637H311.68V67.9529H318.409Z" fill="white"/>
<path d="M356.901 75.9636V106.314H350.172V102.315C348.365 105.303 345.182 107.053 341.126 107.053C333.496 107.053 327.897 100.903 327.897 91.1421C327.897 81.3812 333.496 75.2878 341.126 75.2878C345.197 75.2878 348.365 77.0379 350.172 80.0259V75.9636H356.901ZM334.911 91.1421C334.911 97.5735 337.68 101.579 342.598 101.579C347.007 101.579 350.439 98.1391 350.439 91.1421C350.439 84.1452 346.993 80.7623 342.598 80.7623C337.68 80.7623 334.911 84.7108 334.911 91.1421Z" fill="white"/>
<path d="M383.3 86.3471C382.747 83.1278 379.896 80.8725 376.232 80.8725C372.052 80.8725 368.263 83.978 368.263 91.1421C368.263 98.3632 372.105 101.458 376.065 101.458C379.34 101.458 382.676 99.9888 383.524 95.9265H390.082C388.728 103.041 382.451 107.043 375.951 107.043C367.13 107.043 361.31 100.217 361.31 91.1884C361.31 82.1602 367.187 75.2771 376.232 75.2771C382.847 75.2771 388.728 79.5457 389.858 86.3364L383.3 86.3471Z" fill="white"/>
<path d="M400.781 88.1505L412.03 75.9636H420.113L408.469 88.4351L421.414 106.314H413.573L404.021 93.1519L400.813 96.5953V106.314H394.052V65.4059H400.781V88.1505Z" fill="white"/>
<path d="M243.465 106.26H236.736V75.9032H243.465V106.26Z" fill="white"/>
<path d="M240.1 73.7546C242.628 73.7546 244.676 71.7097 244.676 69.1872C244.676 66.6647 242.628 64.6198 240.1 64.6198C237.573 64.6198 235.524 66.6647 235.524 69.1872C235.524 71.7097 237.573 73.7546 240.1 73.7546Z" fill="white"/>
<path d="M98.3012 98.0964H70.4233C69.452 98.0983 68.4898 97.9089 67.592 97.539C66.6942 97.1691 65.8783 96.6259 65.1912 95.9407L59.4888 90.2492C58.1155 88.8673 57.3466 86.9986 57.3504 85.0522V70.2721C57.3484 69.3027 57.5382 68.3424 57.9088 67.4463C58.2794 66.5502 58.8236 65.7359 59.5102 65.0501L65.2126 59.3587C66.5986 57.9878 68.472 57.2204 70.4233 57.2243H98.3012V65.4059H72.9145C70.9613 65.4078 69.0886 66.183 67.7074 67.5615C66.3263 68.94 65.5495 70.8091 65.5477 72.7586V82.5622C65.5477 84.5129 66.3236 86.3838 67.7049 87.7638C69.0863 89.1438 70.9601 89.9201 72.9145 89.922H98.3012V98.0964Z" fill="white"/>
<path d="M73.7449 73.5874H101.626C103.574 73.5855 105.443 74.3528 106.826 75.7217L112.529 81.4132C113.912 82.7935 114.689 84.6655 114.689 86.6174V101.397C114.689 103.349 113.912 105.221 112.529 106.602L106.826 112.293C105.443 113.673 103.568 114.449 101.612 114.449H73.7449V106.267H99.1315C101.087 106.267 102.963 105.492 104.346 104.112C105.729 102.731 106.506 100.859 106.506 98.9075V89.1074C106.506 87.1555 105.729 85.2835 104.346 83.9032C102.963 82.523 101.087 81.7476 99.1315 81.7476H73.7449V73.5874Z" fill="white"/>
</svg>
